<?xml version="1.0" encoding="UTF-8" standalone="no"?>
<!DOCTYPE svg PUBLIC "-//W3C//DTD SVG 1.1//EN"
 "http://www.w3.org/Graphics/SVG/1.1/DTD/svg11.dtd">
<!-- Generated by graphviz version 2.44.1 (20200629.0846)
 -->
<!-- Title: dependencies Pages: 1 -->
<svg width="657pt" height="211pt"
 viewBox="0.00 0.00 657.00 211.00" xmlns="http://www.w3.org/2000/svg" xmlns:xlink="http://www.w3.org/1999/xlink">
<g id="graph0" class="graph" transform="scale(1 1) rotate(0) translate(4 207)">
<title>dependencies</title>
<polygon fill="white" stroke="transparent" points="-4,4 -4,-207 653,-207 653,4 -4,4"/>
<text text-anchor="start" x="303.51" y="-42.4" font-family="sans-serif" font-weight="bold" font-size="14.00">Legend</text>
<polygon fill="#ffffb3" stroke="transparent" points="90.5,-10 90.5,-30 110.5,-30 110.5,-10 90.5,-10"/>
<text text-anchor="start" x="114.13" y="-15.4" font-family="sans-serif" font-size="14.00"> &#160;Declarations</text>
<polygon fill="#8dd3c7" stroke="transparent" points="203.5,-10 203.5,-30 223.5,-30 223.5,-10 203.5,-10"/>
<text text-anchor="start" x="227.23" y="-15.4" font-family="sans-serif" font-size="14.00"> &#160;Module</text>
<polygon fill="#80b1d3" stroke="transparent" points="289.5,-10 289.5,-30 309.5,-30 309.5,-10 289.5,-10"/>
<text text-anchor="start" x="313.28" y="-15.4" font-family="sans-serif" font-size="14.00"> &#160;Bootstrap</text>
<polygon fill="#fdb462" stroke="transparent" points="386.5,-10 386.5,-30 406.5,-30 406.5,-10 386.5,-10"/>
<text text-anchor="start" x="410.17" y="-15.4" font-family="sans-serif" font-size="14.00"> &#160;Providers</text>
<polygon fill="#fb8072" stroke="transparent" points="482.5,-10 482.5,-30 502.5,-30 502.5,-10 482.5,-10"/>
<text text-anchor="start" x="506.23" y="-15.4" font-family="sans-serif" font-size="14.00"> &#160;Exports</text>
<g id="clust1" class="cluster">
<title>cluster_AppModule</title>
<polygon fill="none" stroke="black" stroke-dasharray="1,5" points="8,-70 8,-195 641,-195 641,-70 8,-70"/>
</g>
<g id="clust6" class="cluster">
<title>cluster_AppModule_providers</title>
<polygon fill="none" stroke="black" points="132,-78 132,-130 633,-130 633,-78 132,-78"/>
</g>
<g id="clust3" class="cluster">
<title>cluster_AppModule_imports</title>
<polygon fill="none" stroke="black" points="16,-78 16,-130 124,-130 124,-78 16,-78"/>
</g>
<!-- UsersModule -->
<g id="node1" class="node">
<title>UsersModule</title>
<polygon fill="#8dd3c7" stroke="black" points="115.92,-122 112.92,-126 91.92,-126 88.92,-122 24.08,-122 24.08,-86 115.92,-86 115.92,-122"/>
<text text-anchor="middle" x="70" y="-99.8" font-family="Times,serif" font-size="14.00">UsersModule</text>
</g>
<!-- AppModule -->
<g id="node2" class="node">
<title>AppModule</title>
<polygon fill="#8dd3c7" stroke="black" points="348.66,-187 345.66,-191 324.66,-191 321.66,-187 265.34,-187 265.34,-151 348.66,-151 348.66,-187"/>
<text text-anchor="middle" x="307" y="-164.8" font-family="Times,serif" font-size="14.00">AppModule</text>
</g>
<!-- UsersModule&#45;&gt;AppModule -->
<g id="edge1" class="edge">
<title>UsersModule&#45;&gt;AppModule</title>
<path fill="none" stroke="black" d="M70,-122.11C70,-141.34 70,-169 70,-169 70,-169 255.17,-169 255.17,-169"/>
<polygon fill="black" stroke="black" points="255.17,-172.5 265.17,-169 255.17,-165.5 255.17,-172.5"/>
</g>
<!-- ApiConfigService -->
<g id="node3" class="node">
<title>ApiConfigService</title>
<ellipse fill="#fdb462" stroke="black" cx="544" cy="-104" rx="81.1" ry="18"/>
<text text-anchor="middle" x="544" y="-99.8" font-family="Times,serif" font-size="14.00">ApiConfigService</text>
</g>
<!-- ApiConfigService&#45;&gt;AppModule -->
<g id="edge2" class="edge">
<title>ApiConfigService&#45;&gt;AppModule</title>
<path fill="none" stroke="black" d="M544,-122.11C544,-141.34 544,-169 544,-169 544,-169 358.83,-169 358.83,-169"/>
<polygon fill="black" stroke="black" points="358.83,-165.5 348.83,-169 358.83,-172.5 358.83,-165.5"/>
</g>
<!-- AppService -->
<g id="node4" class="node">
<title>AppService</title>
<ellipse fill="#fdb462" stroke="black" cx="388" cy="-104" rx="56.74" ry="18"/>
<text text-anchor="middle" x="388" y="-99.8" font-family="Times,serif" font-size="14.00">AppService</text>
</g>
<!-- AppService&#45;&gt;AppModule -->
<g id="edge3" class="edge">
<title>AppService&#45;&gt;AppModule</title>
<path fill="none" stroke="black" d="M340.1,-113.87C340.1,-113.87 340.1,-140.91 340.1,-140.91"/>
<polygon fill="black" stroke="black" points="336.6,-140.91 340.1,-150.91 343.6,-140.91 336.6,-140.91"/>
</g>
<!-- NotificationService -->
<g id="node5" class="node">
<title>NotificationService</title>
<ellipse fill="#fdb462" stroke="black" cx="227" cy="-104" rx="86.81" ry="18"/>
<text text-anchor="middle" x="227" y="-99.8" font-family="Times,serif" font-size="14.00">NotificationService</text>
</g>
<!-- NotificationService&#45;&gt;AppModule -->
<g id="edge4" class="edge">
<title>NotificationService&#45;&gt;AppModule</title>
<path fill="none" stroke="black" d="M289.41,-116.53C289.41,-116.53 289.41,-140.85 289.41,-140.85"/>
<polygon fill="black" stroke="black" points="285.91,-140.85 289.41,-150.85 292.91,-140.85 285.91,-140.85"/>
</g>
</g>
</svg>
