<?xml version="1.0" encoding="UTF-8" standalone="no"?>
<!DOCTYPE svg PUBLIC "-//W3C//DTD SVG 1.1//EN"
 "http://www.w3.org/Graphics/SVG/1.1/DTD/svg11.dtd">
<!-- Generated by graphviz version 2.44.1 (20200629.0846)
 -->
<!-- Title: dependencies Pages: 1 -->
<svg width="673pt" height="287pt"
 viewBox="0.00 0.00 673.00 287.00" xmlns="http://www.w3.org/2000/svg" xmlns:xlink="http://www.w3.org/1999/xlink">
<g id="graph0" class="graph" transform="scale(1 1) rotate(0) translate(4 283)">
<title>dependencies</title>
<polygon fill="white" stroke="transparent" points="-4,4 -4,-283 669,-283 669,4 -4,4"/>
<text text-anchor="start" x="311.51" y="-42.4" font-family="sans-serif" font-weight="bold" font-size="14.00">Legend</text>
<polygon fill="#ffffb3" stroke="transparent" points="98.5,-10 98.5,-30 118.5,-30 118.5,-10 98.5,-10"/>
<text text-anchor="start" x="122.13" y="-15.4" font-family="sans-serif" font-size="14.00"> &#160;Declarations</text>
<polygon fill="#8dd3c7" stroke="transparent" points="211.5,-10 211.5,-30 231.5,-30 231.5,-10 211.5,-10"/>
<text text-anchor="start" x="235.23" y="-15.4" font-family="sans-serif" font-size="14.00"> &#160;Module</text>
<polygon fill="#80b1d3" stroke="transparent" points="297.5,-10 297.5,-30 317.5,-30 317.5,-10 297.5,-10"/>
<text text-anchor="start" x="321.28" y="-15.4" font-family="sans-serif" font-size="14.00"> &#160;Bootstrap</text>
<polygon fill="#fdb462" stroke="transparent" points="394.5,-10 394.5,-30 414.5,-30 414.5,-10 394.5,-10"/>
<text text-anchor="start" x="418.17" y="-15.4" font-family="sans-serif" font-size="14.00"> &#160;Providers</text>
<polygon fill="#fb8072" stroke="transparent" points="490.5,-10 490.5,-30 510.5,-30 510.5,-10 490.5,-10"/>
<text text-anchor="start" x="514.23" y="-15.4" font-family="sans-serif" font-size="14.00"> &#160;Exports</text>
<g id="clust1" class="cluster">
<title>cluster_AppModule</title>
<polygon fill="none" stroke="black" stroke-dasharray="1,5" points="8,-146 8,-271 641,-271 641,-146 8,-146"/>
</g>
<g id="clust3" class="cluster">
<title>cluster_AppModule_imports</title>
<polygon fill="none" stroke="black" points="525,-154 525,-206 633,-206 633,-154 525,-154"/>
</g>
<g id="clust6" class="cluster">
<title>cluster_AppModule_providers</title>
<polygon fill="none" stroke="black" points="16,-154 16,-206 517,-206 517,-154 16,-154"/>
</g>
<g id="clust7" class="cluster">
<title>cluster_UsersModule</title>
<polygon fill="none" stroke="black" stroke-dasharray="1,5" points="501,-70 501,-138 657,-138 657,-70 501,-70"/>
</g>
<g id="clust12" class="cluster">
<title>cluster_UsersModule_providers</title>
<polygon fill="none" stroke="black" points="509,-78 509,-130 649,-130 649,-78 509,-78"/>
</g>
<!-- UsersModule -->
<g id="node1" class="node">
<title>UsersModule</title>
<polygon fill="#8dd3c7" stroke="black" points="624.92,-198 621.92,-202 600.92,-202 597.92,-198 533.08,-198 533.08,-162 624.92,-162 624.92,-198"/>
<text text-anchor="middle" x="579" y="-175.8" font-family="Times,serif" font-size="14.00">UsersModule</text>
</g>
<!-- AppModule -->
<g id="node2" class="node">
<title>AppModule</title>
<polygon fill="#8dd3c7" stroke="black" points="391.66,-263 388.66,-267 367.66,-267 364.66,-263 308.34,-263 308.34,-227 391.66,-227 391.66,-263"/>
<text text-anchor="middle" x="350" y="-240.8" font-family="Times,serif" font-size="14.00">AppModule</text>
</g>
<!-- UsersModule&#45;&gt;AppModule -->
<g id="edge1" class="edge">
<title>UsersModule&#45;&gt;AppModule</title>
<path fill="none" stroke="black" d="M579,-198.11C579,-217.34 579,-245 579,-245 579,-245 401.74,-245 401.74,-245"/>
<polygon fill="black" stroke="black" points="401.74,-241.5 391.74,-245 401.74,-248.5 401.74,-241.5"/>
</g>
<!-- ApiConfigService -->
<g id="node3" class="node">
<title>ApiConfigService</title>
<ellipse fill="#fdb462" stroke="black" cx="428" cy="-180" rx="81.1" ry="18"/>
<text text-anchor="middle" x="428" y="-175.8" font-family="Times,serif" font-size="14.00">ApiConfigService</text>
</g>
<!-- ApiConfigService&#45;&gt;AppModule -->
<g id="edge2" class="edge">
<title>ApiConfigService&#45;&gt;AppModule</title>
<path fill="none" stroke="black" d="M369.26,-192.53C369.26,-192.53 369.26,-216.85 369.26,-216.85"/>
<polygon fill="black" stroke="black" points="365.76,-216.85 369.26,-226.85 372.76,-216.85 365.76,-216.85"/>
</g>
<!-- AppService -->
<g id="node4" class="node">
<title>AppService</title>
<ellipse fill="#fdb462" stroke="black" cx="272" cy="-180" rx="56.74" ry="18"/>
<text text-anchor="middle" x="272" y="-175.8" font-family="Times,serif" font-size="14.00">AppService</text>
</g>
<!-- AppService&#45;&gt;AppModule -->
<g id="edge3" class="edge">
<title>AppService&#45;&gt;AppModule</title>
<path fill="none" stroke="black" d="M318.4,-190.44C318.4,-190.44 318.4,-216.97 318.4,-216.97"/>
<polygon fill="black" stroke="black" points="314.9,-216.97 318.4,-226.97 321.9,-216.97 314.9,-216.97"/>
</g>
<!-- NotificationService -->
<g id="node5" class="node">
<title>NotificationService</title>
<ellipse fill="#fdb462" stroke="black" cx="111" cy="-180" rx="86.81" ry="18"/>
<text text-anchor="middle" x="111" y="-175.8" font-family="Times,serif" font-size="14.00">NotificationService</text>
</g>
<!-- NotificationService&#45;&gt;AppModule -->
<g id="edge4" class="edge">
<title>NotificationService&#45;&gt;AppModule</title>
<path fill="none" stroke="black" d="M111,-198.11C111,-217.34 111,-245 111,-245 111,-245 298.1,-245 298.1,-245"/>
<polygon fill="black" stroke="black" points="298.1,-248.5 308.1,-245 298.1,-241.5 298.1,-248.5"/>
</g>
<!-- UsersService -->
<g id="node6" class="node">
<title>UsersService</title>
<ellipse fill="#fdb462" stroke="black" cx="579" cy="-104" rx="61.95" ry="18"/>
<text text-anchor="middle" x="579" y="-99.8" font-family="Times,serif" font-size="14.00">UsersService</text>
</g>
<!-- UsersService&#45;&gt;UsersModule -->
<g id="edge5" class="edge">
<title>UsersService&#45;&gt;UsersModule</title>
<path fill="none" stroke="black" d="M579,-122.01C579,-122.01 579,-151.85 579,-151.85"/>
<polygon fill="black" stroke="black" points="575.5,-151.85 579,-161.85 582.5,-151.85 575.5,-151.85"/>
</g>
</g>
</svg>
